<svg width="16" height="16" viewBox="0 0 16 16" fill="none" xmlns="http://www.w3.org/2000/svg">
<path fill-rule="evenodd" clip-rule="evenodd" d="M14.4 8.15154C14.4 7.67881 14.3576 7.22427 14.2788 6.7879H8V9.36972H11.5879C11.4303 10.2 10.9576 10.9031 10.2485 11.3758V13.0546H12.4121C13.6727 11.8909 14.4 10.1818 14.4 8.15154V8.15154Z" fill="#4285F4"/>
<path fill-rule="evenodd" clip-rule="evenodd" d="M7.99986 14.6667C9.79986 14.6667 11.3089 14.0728 12.412 13.0546L10.2483 11.3758C9.6544 11.7758 8.89683 12.0182 7.99986 12.0182C6.26652 12.0182 4.79379 10.8485 4.26652 9.27277H2.04834V10.994C3.14531 13.1697 5.3938 14.6667 7.99986 14.6667V14.6667Z" fill="#34A853"/>
<path fill-rule="evenodd" clip-rule="evenodd" d="M4.26634 9.26669C4.13301 8.86669 4.05422 8.44245 4.05422 8.00003C4.05422 7.5576 4.13301 7.13336 4.26634 6.73336V5.01215H2.04816C1.59361 5.90912 1.33301 6.92124 1.33301 8.00003C1.33301 9.07881 1.59361 10.0909 2.04816 10.9879L3.77543 9.64245L4.26634 9.26669V9.26669Z" fill="#FBBC04"/>
<path fill-rule="evenodd" clip-rule="evenodd" d="M7.99986 3.98789C8.98167 3.98789 9.8544 4.32728 10.5514 4.98183L12.4605 3.07274C11.3029 1.99395 9.79986 1.33334 7.99986 1.33334C5.39379 1.33334 3.14531 2.83031 2.04834 5.01213L4.26652 6.73334C4.79379 5.15759 6.26652 3.98789 7.99986 3.98789V3.98789Z" fill="#EA4335"/>
</svg>
